# xmcd
#
# Track frame offsets: 
#        150
#        27683
#        50232
#        76083
#        103577
#        124455
#        151339
#        184505
#        227053
#        254246
#        305668
#
# Disc length: 4148 seconds
#
# Revision: 0
# Processed by: cddbd v1.5.2PL0 Copyright (c) Steve Scherf et al.
# Submitted via: ExactAudioCopy v1.3
#
DISCID=9a10320b
DTITLE=Dutch Mason - Appearing Nightly
DYEAR=1996
DGENRE=Blues
TTITLE0=Everyday I Have The Blues
TTITLE1=Young Fashioned Ways
TTITLE2=Walking Blues
TTITLE3=Feels So Bad
TTITLE4=Swing Low Sweet Cadilac
TTITLE5=Pawnbroker
TTITLE6=Diddly Diddly Daddy
TTITLE7=Sweet Little Angel
TTITLE8=Going To Chicago
TTITLE9=Bo Diddley
TTITLE10=Go Down Gambling
EXTD=
EXTT0=
EXTT1=
EXTT2=
EXTT3=
EXTT4=
EXTT5=
EXTT6=
EXTT7=
EXTT8=
EXTT9=
EXTT10=
PLAYORDER=
